<svg width="908" height="325" viewBox="0 0 908 325" fill="none" xmlns="http://www.w3.org/2000/svg">
<g clip-path="url(#clip0_566_355)">
<path d="M797.155 126.218C810.114 126.369 824.508 125.853 837.116 126.314C837.399 149.823 837.075 173.593 837.185 197.147C847.209 197.406 857.739 197.176 867.832 197.252V207.268C849.38 207.445 830.887 207.045 812.43 207.246C805.854 207.318 799.213 207.291 792.644 207.109L792.693 197.306C803.194 196.953 814.726 197.145 825.288 197.127C825.543 177.269 825.721 155.223 825.228 135.422C815.826 135.608 806.42 135.608 797.018 135.421C796.989 132.432 797.103 129.225 797.155 126.218Z" fill="#F7FCFC"/>
<path d="M90.7993 72.4878C98.4669 71.9721 111.283 72.3681 119.311 72.3628L175.678 72.3501L225.859 72.3335C234.841 72.3241 243.979 72.1073 252.934 72.521C272.453 73.4229 269.191 95.261 269.195 108.991L269.206 151.758L269.224 208.53C269.237 218.574 269.641 229.263 268.95 239.236C268.371 247.583 260.664 252.158 253.259 253.238C248.139 253.788 234.209 253.422 228.427 253.412L181.044 253.439L122.03 253.436C113.907 253.442 98.5565 253.926 90.8247 253.226C87.5041 252.928 84.3182 251.768 81.5825 249.862C74.9135 245.118 74.578 239.072 74.7603 231.632C74.8586 227.619 74.7651 223.349 74.7729 219.313L74.7993 178.724L74.7837 118.562C74.7845 109.028 74.7719 99.5118 74.8618 89.978C74.9584 79.7318 80.7422 74.0346 90.7993 72.4878ZM118.466 81.6001C110.555 81.6001 99.027 81.2628 91.3667 81.7378C85.827 83.8971 84.645 86.0036 84.605 91.854C84.4199 118.953 84.5255 146.058 84.5493 173.159V213.799C84.5469 220.883 84.5422 227.969 84.5903 235.053C84.6354 241.612 89.3136 244.379 95.3872 244.441C108.573 244.575 121.763 244.523 134.952 244.52L204.514 244.513L235.952 244.539C240.25 244.533 249.196 244.732 252.939 244.039C258.188 241.653 260.264 239.55 260.292 233.598C260.407 209.064 260.237 184.528 260.246 159.992L260.319 116.488C260.346 107.657 261.131 95.0098 259.237 86.314C258.958 85.0312 255.095 82.4246 253.766 82.0806C245.627 81.2174 233.738 81.593 225.691 81.6011L169.427 81.6118L118.466 81.6001Z" fill="#F7FCFC"/>
<path d="M170.929 94.6247C188.461 93.1078 191.851 114.94 176.91 119.708C177.185 134.406 176.703 149.235 176.914 163.944C176.988 169.138 176.97 174.468 176.784 179.651C181.558 174.707 185.226 170.628 189.752 165.491C195.939 158.469 203.237 151.56 209.229 144.382C202.6 120.812 233.509 119.083 234.318 137.346C234.755 147.226 225.225 152.223 216.724 149.945C213.801 149.161 202.781 162.47 200.178 165.2C192.292 173.471 185.035 182.676 176.878 190.776C177.139 195.299 177.003 200.893 177.012 205.494C186.233 208.212 189.187 217.782 183.809 225.789C181.347 229.454 177.132 230.238 173.018 230.811C168.211 230.112 164.649 229.103 161.937 224.666C160.097 221.63 159.525 217.993 160.344 214.539C161.76 208.793 164.157 208.016 168.807 205.222C169.947 202.993 169.445 194.912 169.372 191.966C156.69 178.839 142.657 162.665 129.3 150.44C109.386 155.317 105.183 133.587 117.75 126.962C120.703 125.369 124.175 125.04 127.374 126.049C134.486 128.277 139.407 135.181 135.821 142.469C134.783 144.578 136.351 146.252 137.756 147.716C144.824 155.079 151.998 162.375 158.993 169.812C162.384 173.416 167.111 177.78 169.367 182.082C169.595 161.202 169.668 140.321 169.585 119.44C158.431 117.804 155.018 98.7622 170.929 94.6247Z" fill="#F7FCFC"/>
<path d="M618.86 123.034C620.206 122.919 621.419 122.919 622.749 122.996C649.091 124.504 657.519 146.119 656.46 169.31C655.401 192.541 642.066 210.487 617.102 208.924C606.321 208.249 599.709 203.571 592.865 195.779L592.962 213.577L592.979 240.952L580.638 240.988L580.832 125.276L592.76 125.222L592.982 136.909C593.504 136.147 594.054 135.403 594.628 134.677C600.186 127.722 610.178 123.962 618.86 123.034ZM634.119 138.151C630.34 134.965 623.614 132.509 618.69 133.156C605.513 134.388 599.761 140.318 592.926 150.569C592.978 160.477 592.808 171.701 593.144 181.505C600.617 192.991 605.493 197.841 619.628 198.766C626.528 198.154 632.179 196.317 636.779 190.675C647.297 177.77 647.381 149.323 634.119 138.151Z" fill="#F7FCFC"/>
<path d="M720.411 123.299C734.546 122.911 748.565 127.79 752.19 143.094C753.508 148.651 753.096 154.41 753.12 160.079C753.047 170.578 753.104 181.117 752.861 191.614C752.679 199.448 759.479 197.785 765.287 197.6L765.166 207.292L760.529 207.421C751.382 207.643 742.606 208.448 742.388 196.693C739.587 198.462 737.396 200.464 734.85 202.164C725.985 208.088 712.662 210.356 702.229 208.577C694.505 207.259 690.216 204.497 685.919 198.398C683.401 194.656 682.043 190.256 682.007 185.747C681.987 179.394 685.176 172.841 689.618 168.485C701.716 156.626 725.508 158.532 741.471 158.542C741.608 146.757 740.201 136.264 725.961 133.792C714.247 131.76 703.26 136.952 693.895 143.674C691.344 140.857 689.206 138.44 686.869 135.455C694.448 128.288 707.795 124.512 717.978 123.443C718.786 123.371 719.599 123.323 720.411 123.299ZM741.645 167.367C735.403 167.352 727.763 167.157 721.647 167.512C714.339 168.209 703.389 170.047 698.526 175.974C696.04 179.064 694.888 183.018 695.333 186.959C695.664 190.37 697.375 193.498 700.066 195.62C704.715 199.279 711.138 199.436 716.753 198.808C730.112 197.4 733.24 192.853 741.688 184.153C741.68 178.602 741.733 172.904 741.645 167.367Z" fill="#F7FCFC"/>
<path d="M404.598 123.039C406.566 122.874 408.543 122.835 410.516 122.919C419.491 123.224 429.086 126.611 435.301 133.289C444.295 142.954 445.314 155.601 444.829 168.141C422.999 168.344 400.864 167.966 379.099 168.482C380.834 198.042 406.802 205.073 430.312 193.316C432.152 192.193 435.639 189.373 437.475 187.959C439.667 190.647 441.915 193.289 444.215 195.884C435.574 203.343 426.75 207.31 415.425 208.525C403.189 209.837 390.533 208.273 380.798 200.167C372.611 193.35 368.471 182.778 367.411 172.348C365.964 158.104 368.532 146.686 377.414 135.333C383.627 127.392 394.961 124.066 404.598 123.039ZM424.54 138.458C418.859 133.783 411.713 132.113 404.465 133.146C390.249 134.376 381.462 145.426 379.331 158.91C389.101 159.072 398.872 159.139 408.644 159.111C416.609 159.089 424.985 159.191 432.917 158.949C432.075 150.787 431.337 144.051 424.54 138.458Z" fill="#F7FCFC"/>
<path d="M509.876 123.05C522.034 121.742 535.547 127.054 545.143 134.38C543.26 137.241 540.366 140.276 538.025 142.76C530.927 137.413 522.924 133.843 514.257 133.202C506.359 132.619 488.873 135.557 489.192 145.341C489.677 160.258 521.707 159.535 531.639 164.042C536.566 166.279 539.961 167.173 543.644 171.428C550.734 179.336 549.226 193.366 541.259 200.205C531.182 208.856 518.53 209.312 505.959 208.616C493.291 207.753 482.72 203.398 473.258 194.788C475.853 192.232 478.472 188.732 481.431 185.772C492.203 197.025 501.379 199.216 516.578 198.374C525.353 197.888 536.481 194.604 535.774 183.74C535.208 175.122 523.158 173.031 516.533 171.472C504.027 168.545 479.547 165.926 477.146 149.915C474.119 129.753 494.839 124.057 509.876 123.05Z" fill="#F7FCFC"/>
<path d="M283.227 134.4C290.254 134.178 298.055 134.26 305.089 134.407C305.014 137.773 305.947 144.335 304.145 146.604L302.437 146.69C295.317 146.733 286.629 146.953 279.657 146.433C279.697 142.402 278.887 138.793 280.078 135.232C281.237 134.212 281.44 134.508 283.227 134.4Z" fill="#F7FCFC"/>
<path d="M283.391 101.669C290.204 101.35 298.311 101.477 305.165 101.567C305.11 105.474 306.001 110.193 304.657 113.325C303.423 114.161 303.164 113.887 301.49 113.892C294.21 113.968 286.928 113.885 279.651 113.645C279.711 109.604 278.844 105.999 280.103 102.502C281.256 101.494 281.614 101.784 283.391 101.669Z" fill="#F7FCFC"/>
<path d="M279.674 200.981C287.529 200.555 297.227 200.813 305.146 200.917C305.137 204.898 305.098 208.878 305.026 212.858C296.671 212.912 288.001 213.079 279.676 212.84C279.628 208.887 279.628 204.934 279.674 200.981Z" fill="#F7FCFC"/>
<path d="M279.707 167.408C288.009 167.169 296.806 167.324 305.145 167.345L305.105 179.396C296.721 179.423 287.978 179.57 279.631 179.239L279.707 167.408Z" fill="#F7FCFC"/>
<path d="M113.845 40.9656C117.953 40.8538 122.063 40.8949 126.167 41.0888C126.289 48.9827 126.505 57.0785 126.288 64.9519C122.093 64.9953 117.842 64.9494 113.643 64.94C113.638 57.3871 113.42 48.3971 113.845 40.9656Z" fill="#F7FCFC"/>
<path d="M149.337 41.0033C153.305 40.9063 156.869 40.95 160.839 41.0619C160.884 48.374 161.143 57.1066 160.677 64.4783C160.667 64.6422 160.221 64.8663 160.018 64.9993L148.201 65.0039C148.109 62.3217 148.007 43.2813 148.571 41.3688L149.337 41.0033Z" fill="#F7FCFC"/>
<path d="M113.817 260.432C117.966 260.352 122.221 260.475 126.379 260.549C126.465 268.396 126.471 276.244 126.399 284.091C122.177 284.165 117.955 284.17 113.734 284.109C113.509 276.89 113.511 267.576 113.817 260.432Z" fill="#F7FCFC"/>
<path d="M43.5029 101.654C50.0358 101.399 59.6068 101.397 66.0734 101.619C66.1062 104.212 66.6433 111.332 65.4894 113.476C65.3847 113.67 64.308 113.691 63.9497 113.724C56.448 113.828 48.9451 113.816 41.4438 113.69C41.3608 110.947 40.88 104.51 41.9931 102.119C42.1077 101.872 43.1072 101.742 43.5029 101.654Z" fill="#F7FCFC"/>
<path d="M218.406 40.9768C222.213 40.8085 226.407 40.9149 230.248 40.9407C230.284 44.1552 230.902 63.1084 229.586 64.7324C225.688 64.9771 221.683 64.9206 217.77 64.9175C217.759 61.6414 217.278 42.3478 218.406 40.9768Z" fill="#F7FCFC"/>
<path d="M184.03 40.9793C187.806 40.8054 191.783 40.8846 195.579 40.9036C195.647 44.3044 195.865 62.6102 195.276 64.5456L194.309 64.8509C190.651 64.9395 186.75 64.8102 183.072 64.7472C183.071 61.0988 182.808 44.0154 183.281 41.4717L184.03 40.9793Z" fill="#F7FCFC"/>
<path d="M41.4936 200.904C49.2563 200.612 58.3361 200.828 66.1527 200.929C66.207 204.861 66.1468 208.794 65.9721 212.723C58.1237 213.181 49.4409 213.019 41.5857 212.949C41.388 208.937 41.3573 204.918 41.4936 200.904Z" fill="#F7FCFC"/>
<path d="M148.598 260.523C152.629 260.386 156.828 260.438 160.874 260.433C160.852 265.104 161.386 279.979 160.732 284.083L148.345 284.12C148.269 280.316 147.714 262.874 148.598 260.523Z" fill="#F7FCFC"/>
<path d="M42.7203 134.393C49.963 134.165 58.7115 134.236 65.9202 134.382C65.9777 136.746 66.2989 144.156 65.6274 146.137L64.7578 146.424C57.2468 146.514 48.9073 146.77 41.4717 146.46C41.4188 144.032 41.1243 136.864 41.8245 134.762L42.7203 134.393Z" fill="#F7FCFC"/>
<path d="M218.096 260.501C222.014 260.265 226.395 260.405 230.307 260.64C230.365 267.88 230.626 276.921 230.216 284.08C225.941 284.128 222.107 284.137 217.833 283.95C217.794 280.061 217.436 263.807 218.096 260.501Z" fill="#F7FCFC"/>
<path d="M41.5661 167.38C49.605 167.207 57.8973 167.309 65.956 167.313C66.0866 171.185 65.9933 175.334 65.9715 179.229C59.7863 179.646 47.7219 179.493 41.5373 179.346C41.4388 175.409 41.5288 171.33 41.5661 167.38Z" fill="#F7FCFC"/>
<path d="M184.709 260.543C188.596 260.432 191.657 260.434 195.538 260.618C195.571 264.092 195.976 281.995 195.251 283.878L194.467 284.111C190.476 284.137 187.059 284.09 183.078 283.868C183.056 280.469 182.638 262.69 183.576 260.829L184.709 260.543Z" fill="#F7FCFC"/>
<path d="M822.916 93.0264C827.617 92.857 832.407 92.933 837.12 92.9597L837.132 109.357C832.253 109.517 827.791 109.458 822.924 109.367C822.863 103.92 822.859 98.4734 822.916 93.0264Z" fill="#F7FCFC"/>
</g>
<defs>
<clipPath id="clip0_566_355">
<rect width="827.832" height="245" fill="white" transform="translate(40 40)"/>
</clipPath>
</defs>
</svg>
